<svg xmlns="http://www.w3.org/2000/svg" viewBox="0 0 138.36 138.36"><defs><style>.cls-1{fill:#7287d8;}.cls-2{fill:#fff;}</style></defs><title>Asset 5</title><g id="Layer_2" data-name="Layer 2"><g id="Layer_1-2" data-name="Layer 1"><circle class="cls-1" cx="69.18" cy="69.18" r="69.18"/><path class="cls-2" d="M101.85,97.46c0,3.84.51,7.67,1,8.18-.4-.41-2.62-.91-5.55-.91a14.12,14.12,0,0,0-5.76.91c.61-.51,1-3.64,1-6.87L45.8,83.32V97.46c0,3.84.3,7.67,1,8.18-.41-.41-2.83-.91-5.76-.91-2.73,0-5.15.5-5.55.91,1-1,1-6.36,1-8.18v-56c0-4-.51-8.18-1-8.78A7.81,7.81,0,0,0,40.34,34h1.52a9.19,9.19,0,0,0,5-1.31c-.71.6-1,4.74-1,8.78v1.82L92.56,58.67V41.5c0-4-.3-8.18-1-8.78a8.82,8.82,0,0,0,5,1.31H98a8.68,8.68,0,0,0,4.85-1.31c-.5.6-.91,4.74-1,8.78Zm-56-44.85v6.06L92.56,74V68ZM45.8,74,92.56,89.38V83.32L45.8,68Z"/></g></g></svg>