<svg xmlns="http://www.w3.org/2000/svg" viewBox="0 0 757.07 120.96"><defs><style>.cls-1{fill:#2095f2;}</style></defs><title>LeChenOS_logo_v2</title><g id="Layer_2" data-name="Layer 2"><g id="Layer_1-2" data-name="Layer 1"><path class="cls-1" d="M755.85,111.84c0,4.35.54,8,1.22,8.57-.81-.68-5.85-1.23-11.15-1.23H677.5c-5.58,0-10.48.55-11.3,1.23.55-.55,1.23-3,1.23-6.4,0-4.21-.68-8-1.36-8.7.82.81,5.85,1.22,11.15,1.22h65.84V98.35H677.5c-5.58,0-10.48.54-11.3,1.49.69-.81,1.36-4.35,1.36-8.7v-82c0-4.35-.67-8.43-1.36-9.11.82.81,5.72,1.77,11.16,1.77h68.56c5.3,0,10.2-1,11-1.77-.55.68-1.09,3.53-1.09,6.93,0,4.22.54,8,1.22,8.71-.81-.82-5.85-1.22-11.15-1.36h-65.7v8.16h65.43c5.57,0,10.47-.54,11.29-1.49-.55.68-1.09,3.4-1.09,6.53ZM743.06,86V34.85H680.22V86Z"/><path class="cls-1" d="M174.92,105.82c-.55.54-1.09,3.27-1.09,6.41v2.32c0,3.27.54,5.86,1.09,6.41-.82-.82-5.73-1.23-11.19-1.23H11.32c-5.45,0-10.5.41-11.32,1.23.68-.68,1.36-4.37,1.36-8.6V12.71C1.36,7.26.82,1.94,0,1.12c.55.54,4,1.77,7.64,1.77a15.6,15.6,0,0,0,7.64-1.77c-.82.82-1.37,6.14-1.37,11.59V85.9H79.79c5.46,0,10.37-.55,11.19-1.37-.55.69-1.09,2.48-1.09,5.76v2.18c0,3.14.54,6,1.09,6.68-.82-1-5.73-1.5-11.19-1.5H13.91v9.4H163.73C169.19,107.05,174.1,106.64,174.92,105.82Z"/><path class="cls-1" d="M110.21,15.58V44.36h53.47c5.32,0,10.37-.41,11-1.37-.55.82-1.23,3.82-1.23,7.78s.68,6.95,1.23,7.5c-.68-.68-5.73-1.09-11-1.36H110.21V85.82h53.47c5,0,10.37-.41,11-1.36-.55.68-1.23,4.09-1.23,7.64,0,4,.68,6.82,1.23,7.5-.68-1-5.73-1.23-11-1.23H107.49c-5.19,0-10.1.27-11,1.23.68-.68,1.36-4.37,1.36-8.59V10.39c0-4.5-.68-8.59-1.36-9.27,1,.82,5.86,1.77,11,1.77h56.19c5.32,0,10.37-1,11-1.77-.55.54-1.23,4.36-1.23,8.05s.68,7.09,1.23,7.63c-.68-.81-5.73-1.22-11-1.22Z"/><path class="cls-1" d="M197,15.44V107H534.79c5.45,0,10.5-.54,11.18-1.5-.55.68-1.23,3.82-1.23,7.78,0,3.68.68,6.68,1.23,7.5-.68-1.09-5.73-1.23-11.18-1.23H194.24c-5.32,0-10.37.14-11.32,1.23.82-.82,1.5-4.37,1.5-8.6v-102c0-4.37-.69-8.32-1.5-9.14,1,.95,6,1.77,11.32,1.77h55.92c5.46,0,10.5-.82,11.19-1.77-.55.82-1.23,4.09-1.23,8.05s.68,6.82,1.23,7.5c-.69-.82-5.73-1.23-11.19-1.23Z"/><path class="cls-1" d="M359.15,88.55c0,5.18.68,10.23,1.5,11-.68-.55-3.69-1.23-7.78-1.23-3.54,0-6.95.68-7.5,1.23.68-.82,1.36-5.87,1.36-11.19V77.64H283.45V88.55c0,5,.68,10.23,1.5,11-.69-.55-3.69-1.23-7.64-1.23-3.69,0-7.1.68-7.78,1.23.82-.82,1.5-6,1.5-11.19V12.85c0-5.18-.68-10.91-1.5-11.73a16.78,16.78,0,0,0,7.78,1.77A16.65,16.65,0,0,0,285,1.12c-.82.82-1.5,6.41-1.5,11.73V23.62h63.28V12.85c0-5.32-.68-10.91-1.36-11.73.55.54,4,1.77,7.5,1.77a16.78,16.78,0,0,0,7.78-1.77c-.82.82-1.5,6.41-1.5,11.73Zm-75.7-52.38v8.19h63.28V36.17Zm63.28,28.92V56.91H283.45v8.18Z"/><path class="cls-1" d="M382.61,15.58V44.36h53.47c5.32,0,10.37-.41,11.05-1.37-.55.82-1.23,3.82-1.23,7.78s.68,6.95,1.23,7.5c-.68-.68-5.73-1.09-11.05-1.36H382.61V85.82h53.47c5.05,0,10.37-.41,11.05-1.36-.55.68-1.23,4.09-1.23,7.64,0,4,.68,6.82,1.23,7.5-.68-1-5.73-1.23-11.05-1.23h-56.2c-5.18,0-10.09.27-11.05,1.23.69-.68,1.37-4.37,1.37-8.59V10.39c0-4.5-.68-8.59-1.37-9.27,1,.82,5.87,1.77,11.05,1.77h56.2c5.32,0,10.37-1,11.05-1.77-.55.54-1.23,4.36-1.23,8.05s.68,7.09,1.23,7.63c-.68-.81-5.73-1.22-11.05-1.22Z"/><path class="cls-1" d="M544.93,88.55c0,5.18.68,10.37,1.36,11-.54-.55-3.54-1.23-7.5-1.23s-6.95.68-7.77,1.23c.82-.68,1.36-4.91,1.36-9.28L469.23,69.46V88.55c0,5.18.41,10.37,1.36,11-.54-.55-3.82-1.23-7.77-1.23-3.69,0-7,.68-7.5,1.23,1.36-1.37,1.36-8.59,1.36-11V13c0-5.45-.68-11-1.36-11.86.54.54,2.86,1.77,6.54,1.77h2.05c3.27,0,6.14-1.23,6.68-1.77-.95.82-1.36,6.41-1.36,11.86v2.46l63.15,20.73V13c0-5.45-.41-11-1.36-11.86.54.54,3.27,1.77,6.68,1.77h2a11.72,11.72,0,0,0,6.54-1.77c-.68.82-1.22,6.41-1.36,11.86ZM469.23,28v8.18l63.15,20.74V48.72Zm0,28.92,63.15,20.73V69.46L469.23,48.72Z"/><path class="cls-1" d="M656.69,111.81c0,4.22.54,7.89,1.22,8.57-.95-.68-5.85-1.22-11.15-1.22H565.82c-5.45,0-10.48.54-11.16,1.22.68-.68,1.36-4.35,1.36-8.57V9.25c0-4.35-.68-8.43-1.36-9.25.68.82,5.71,1.77,11.16,1.77h80.94c5.3,0,10.2-.95,11.15-1.77-.68.82-1.22,4.9-1.22,9.25ZM644,14.42H568.54v92.22H644Z"/><path class="cls-1" d="M592.21,70.54c.81-.55,1.36-4,1.36-7.76s-.55-7.07-1.36-7.62c.95.68,6,1.23,11.29,1.23h5.57c5.31,0,10.34-.55,11.16-1.23-.55.55-1.36,3.68-1.36,7.62s.81,7.21,1.36,7.76c-.82-.82-6-1.37-11.16-1.37H603.5C598.33,69.17,593.16,69.72,592.21,70.54Z"/></g></g></svg>